<svg xmlns="http://www.w3.org/2000/svg" viewBox="0 0 47200 456" width="47200" height="456"><path d="M233.049 456.024c107.077 0 178.252-53.538 178.252-143.609v-1.26c0-82.513-62.987-115.265-163.765-137.31-61.727-13.228-76.841-23.306-76.841-42.831v-1.263c0-17.006 14.488-28.344 44.091-28.344 39.681 0 83.142 13.857 123.453 43.461l61.096-86.288C351.465 20.158 293.518.002 217.935.002 112.118.002 47.241 58.58 47.241 141.091v1.261c0 90.7 73.064 116.521 166.286 137.94 60.468 15.116 74.954 23.935 74.954 42.83v1.261c0 19.525-17.636 30.233-51.018 30.233-50.389 0-98.259-17.636-142.98-52.908l-68.031 81.254c55.428 48.497 127.863 73.062 206.597 73.062M702.5 456.031h4.148c103.565-.629 172.405-53.041 172.405-140.787v-3.107c0-80.436-60.921-112.743-158.393-134.695-59.703-13.423-74.321-23.8-74.321-43.314v-3.11c0-17.078 14.013-28.674 42.645-29.303 39.876 0 83.408 13.402 123.893 42.035l59.092-87.092C821.301 19.496 760.886.002 683.413.002 581.067 1.213 518.318 59.081 518.318 140.097l4.469 1.22c0 88.669 70.667 114.587 160.831 136.248 58.485 15.565 72.496 25.039 72.496 44.258v4.052c0 19.829-17.058 31.13-49.345 32.075-48.736 0-95.036-17.058-138.29-51.173l-65.799 78.589c53.61 46.906 123.669 70.665 199.82 70.665M1163.437 456.063h22.15c88.32-3.362 147.028-50.883 147.028-128.538V316.4c0-71.421-51.954-101.798-135.079-123.343-50.914-14.273-63.381-25.947-63.381-45.414v-11.127c0-17.389 11.95-30.103 36.368-33.464 40.722 0 84.562 11.429 125.804 35.848l50.394-90.583C1283.907 16.625 1212.781 0 1127.108 0c-87.282 6.47-140.794 61.257-140.794 135.784l23.862 1.04c0 79.855 60.266 106.196 137.158 128.906 49.876 17.511 61.825 29.827 61.825 50.455v16.169c0 21.147-14.547 35.022-42.082 40.065-41.562 0-81.047-14.547-117.934-43.64l-56.114 67.02c45.719 40.002 105.465 60.264 170.408 60.264M1613.516 456.126h57.82c58.116-8.775 96.746-46.608 96.746-104.27v-27.01c0-53.559-34.186-80.111-88.883-100.851-33.503-15.955-41.706-30.2-41.706-49.573V147.41c0-18.005 7.864-32.934 23.931-41.71 42.399 0 86.849 7.521 129.59 23.589l33.16-97.5c-86.88-20.853-179.229-31.793-281.151-31.793-57.432 16.889-92.644 65.571-92.644 127.243l62.29.684c0 62.39 39.655 89.568 90.251 114.356 32.819 21.368 40.682 39.317 40.682 62.736v40.174c0 23.76-9.572 42.735-27.69 55.898-27.349 0-53.33-9.571-77.602-28.715l-36.924 44.1c30.083 26.322 69.397 39.654 112.13 39.654M2067.022 456.18h87.913c32.634-13.343 54.325-43.002 54.325-83.796v-40.412c0-38.49-19.196-61.814-49.909-81.876-18.813-17.374-23.419-33.788-23.419-53.082v-40.413c0-18.525 4.416-35.324 13.438-48.666 43.813 0 88.779 4.223 132.785 13.245l18.62-103.335C2193.591 6.136 2083.336-.007 1967.707-.007c-32.249 25.679-52.022 69.21-52.022 120.036l94.709.384c0 47.657 22.268 75.54 50.679 102.082 18.428 24.621 22.843 47.323 22.843 73.096v60.427c0 25.964-5.375 49.242-15.548 69.256-15.357 0-29.946-5.375-43.576-16.124l-20.733 24.763c16.892 14.78 38.968 22.267 62.963 22.267M2527.995 456.212h105.857c17.439-16.067 29.031-40.852 29.031-71.588v-48.403c0-29.505-10.258-50.905-26.672-70.562-10.053-18.22-12.515-35.928-12.515-55.174v-48.404c0-18.835 2.36-36.748 7.181-52.814 44.657 0 89.93 2.257 134.69 7.078l9.951-106.813c-119.29-6.258-240.22-9.541-364.023-9.541-17.234 30.92-27.801 71.381-27.801 115.739l114.039.205c0 38.872 11.9 67.176 27.083 94.764 9.848 26.561 12.208 52.096 12.208 79.273v72.502c0 27.279-2.873 53.122-8.31 77.221-8.206 0-16.003-2.872-23.287-8.617l-11.08 13.234c9.028 7.899 20.825 11.9 33.648 11.9M2993.496 456.23h116.433c8.483-17.671 14.121-39.584 14.121-64.391v-53.114c0-24.208-4.99-44.474-12.974-63.892-4.89-18.719-6.087-37.189-6.087-56.407v-53.114c0-19.019 1.147-37.589 3.493-55.26 45.154 0 90.608 1.098 135.812 3.443l4.841-108.864c-126.426-3.044-253.65-4.641-382.27-4.641-8.384 34.009-13.524 72.66-13.524 113.206l125.434.1c0 33.693 5.788 62.245 13.174 90.449 4.79 27.705 5.938 54.91 5.938 82.914v79.621c0 28.054-1.397 55.409-4.042 81.916-3.992 0-7.784-1.397-11.327-4.191l-5.39 6.437c4.391 3.842 10.13 5.788 16.368 5.788M3461.764 456.241h122.505c3.342-18.593 5.563-38.856 5.563-60.26v-55.818c0-21.168-1.966-40.783-5.111-60.064-1.926-19.006-2.398-37.913-2.398-57.115v-55.818c0-19.124.452-38.07 1.376-56.663 45.44 0 90.997.432 136.457 1.356l1.907-110.041c-130.522-1.2-261.358-1.829-392.745-1.829-3.302 35.783-5.327 73.394-5.327 111.752l131.974.04c0 30.72 2.281 59.415 5.19 87.972 1.887 28.361 2.339 56.526 2.339 85.005v83.707c0 28.499-.55 56.722-1.592 84.611-1.573 0-3.067-.55-4.462-1.651l-2.123 2.536c1.729 1.513 3.99 2.28 6.447 2.28M3931.886 456.246h125.561c.754-19.056 1.254-38.49 1.254-58.18v-57.179c0-19.638-.443-38.925-1.152-58.137-.434-19.15-.541-38.277-.541-57.471V168.1c0-19.177.102-38.313.31-57.37 45.584 0 91.194.097 136.782.306l.43-110.635c-132.584-.27-265.239-.412-398.018-.412-.744 36.676-1.201 73.764-1.201 111.02l135.267.009c0 29.223.514 57.99 1.17 86.726.426 28.691.528 57.339.528 86.057v85.764c0 28.722-.124 57.383-.359 85.968-.355 0-.692-.124-1.006-.373l-.479.572c.39.342.9.514 1.454.514M4403.339 456.248h126.451V341.097v-57.575V168.371v-57.575h136.876V-.011h-399.553v110.807h136.226v345.452M4875.339 456.248h126.451V341.097v-57.575V168.371v-57.575h136.876V-.011h-399.553v110.807h136.226v345.452M5347.339 456.248h126.451V341.097v-57.575V168.371v-57.575h136.876V-.011h-399.553v110.807h136.226v345.452M5819.339 456.248h126.451V341.097v-57.575V168.371v-57.575h136.876V-.011h-399.553v110.807h136.226v345.452M6291.339 456.248h126.451V341.097v-57.575V168.371v-57.575h136.876V-.011h-399.553v110.807h136.226v345.452M6763.339 456.248h126.451V341.097v-57.575V168.371v-57.575h136.876V-.011h-399.553v110.807h136.226v345.452M7235.339 456.248h126.451V341.097v-57.575V168.371v-57.575h136.876V-.011h-399.553v110.807h136.226v345.452M7707.339 456.248h126.451V341.097v-57.575V168.371v-57.575h136.876V-.011h-399.553v110.807h136.226v345.452M8179.339 456.248h126.451V341.097v-57.575V168.371v-57.575h136.876V-.011h-399.553v110.807h136.226v345.452M8651.339 456.248h126.451V110.796h-126.451v345.452m0-345.452h263.327V-.011h-399.553v110.807h136.226m0 0M9125.324 456.266l122.346-3.677c-1.661-55.687-2.711-112.383-2.711-170.192V107.162h-126.422v119.632c0 39.436.656 78.242 1.833 116.47 1.177 38.227 2.874 75.877 4.954 113.002m0-334.121c42.162 0 84.16-.234 125.949-.72 45.15-.486 90.09-1.226 134.776-2.238.556-36.736.857-73.744.857-111.044L9322.498-.01h-89.995l-21.47 8.279c-7.156 1.04-14.575 1.797-22.205 2.293-21.942.497-44.094.733-66.404.733l-64.418.919-64.418.92-.011 108.092 131.747.919m-1.985-11.349M9605.941 456.343l104.525-19.638c-8.866-47.49-14.477-100.367-14.477-159.191V91.39h-126.296v139.083c0 44.004 3.507 84.642 9.792 122.193 6.284 37.551 15.346 72.017 26.456 103.677m0-284.94c42.21 0 83.548-1.247 123.768-3.844 43.086-2.598 85.055-6.547 125.66-11.95 2.972-35.869 4.58-73.192 4.58-112.075L9805.022-.007h-95.231l-18.309 44.215c-6.103 5.555-13.609 9.595-22.238 12.246-20.834 2.652-42.79 3.914-65.587 3.914l-54.984 4.91-54.983 4.909-.056 96.307 112.307 4.909m-10.602-60.607M10095.014 456.496l69.217-51.262c-23.144-31.249-37.791-76.559-37.791-137.394V60.139H10000.395v177.624c0 53.055 9.154 97.321 25.558 133.533 16.405 36.211 40.06 64.367 69.061 85.2m0-187.494c42.307 0 82.337-3.254 119.448-10.035 38.997-6.781 75.076-17.088 107.597-31.192 7.758-34.152 11.957-72.1 11.957-114.117L10297.873-.001H10192.269l-12.047 115.418c-4.016 14.501-11.695 25.046-22.302 31.967-18.64 6.92-40.208 10.216-63.971 10.216l-36.289 12.816-36.289 12.815-.147 72.956 73.79 12.815m-27.675-158.206M10581.418 456.625l39.429-77.942c-35.19-17.547-57.46-56.473-57.46-119.005V33.774H10437.552v210.139c0 60.69 13.919 108.019 38.862 143.1 24.942 35.081 60.908 57.914 105.004 69.612m0-105.282c42.389 0 81.314-4.949 115.803-15.259 35.548-10.31 66.658-25.981 92.359-47.426 11.795-32.702 18.179-71.178 18.179-115.839L10787.464.004H10673.109l-6.765 175.489c-2.255 22.048-10.079 38.082-22.356 48.605-16.788 10.522-38.028 15.533-62.606 15.533l-20.517 19.485-20.518 19.486-.223 53.256 41.294 19.485m-42.079-240.547M11062.006 456.702l21.668-93.85c-42.373-9.377-69.187-44.497-69.187-108.041V18.054h-125.709V247.58c0 65.243 16.759 114.398 46.793 148.804 30.033 34.407 73.34 54.066 126.435 60.318m0-56.263c42.438 0 80.705-5.959 113.63-18.374 33.491-12.414 61.639-31.284 83.273-57.106 14.202-31.838 21.89-70.627 21.89-116.866L11269.953.007H11150.38l-3.615 211.307c-1.205 26.547-9.116 45.854-22.389 58.524-15.683 12.67-36.728 18.704-61.792 18.704l-11.114 23.462-11.114 23.463-.268 41.509 21.918 23.463m-50.667-289.643M11539.069 456.747l11.198-103.227c-46.607-4.562-76.1-37.438-76.1-101.578V8.788H11348.532v240.954c0 67.926 18.434 118.157 51.468 152.167 33.034 34.009 80.668 51.797 139.069 54.838m0-27.368c42.466 0 80.345-6.554 112.348-20.209 32.279-13.655 58.681-34.41 77.917-62.812 15.622-31.329 24.078-70.304 24.078-117.472L11748.136.009h-122.649l-1.758 232.42c-.587 29.199-8.549 50.435-22.409 64.372-15.032 13.936-35.962 20.572-61.312 20.572l-5.57 25.807-5.571 25.807-.295 34.585 10.497 25.807m-55.73-318.583M12013.975 456.773l5.188-108.61c-49.037-1.797-80.068-33.385-80.068-97.868V3.468H11813.502v247.514c0 69.468 19.395 120.316 54.152 154.098 34.757 33.781 84.875 50.495 146.321 51.693m0-10.781c42.482 0 80.139-6.896 111.613-21.263 31.583-14.367 56.982-36.204 74.842-66.088 16.437-31.035 25.333-70.117 25.333-117.818L12223.685.01h-124.414l-.693 244.54c-.231 30.722-8.222 53.065-22.419 67.728-14.659 14.663-35.523 21.646-61.037 21.646l-2.389 27.152-2.388 27.153-.311 30.61 3.941 27.153m-58.636-335.196M12487.438 456.786l2.163-111.32c-50.261-.405-82.066-31.345-82.066-96V.791h-125.572v250.816c0 70.243 19.879 121.403 55.503 155.069 35.624 33.667 86.993 49.84 149.972 50.11m0-2.431c42.491 0 80.035-7.068 111.243-21.793 31.232-14.726 56.127-37.108 73.295-67.737 16.846-30.888 25.964-70.023 25.964-117.993l-.468-246.821h-125.303l-.157 250.641c-.052 31.488-8.058 54.389-22.424 69.418-14.471 15.029-35.301 22.185-60.898 22.185l-.787 27.83-.787 27.83-.318 28.61.64 27.83m-60.099-343.559M12959.864 456.79l1.282-112.109c-50.617 0-82.648-30.751-82.648-95.456V.011h-125.565v251.778c0 70.468 20.02 121.719 55.896 155.352 35.877 33.633 87.61 49.649 151.035 49.649m0 0c42.493 0 80.005-7.118 111.135-21.948 31.13-14.83 55.878-37.371 72.844-68.216 16.966-30.846 26.149-69.997 26.149-118.045V.011h-125.562v252.417c0 31.712-8.01 54.775-22.426 69.911-14.416 15.135-35.237 22.342-60.858 22.342l-.32 28.027-.321 28.028-.32 28.027-.321 28.027m-60.525-345.994M13431.864 456.79l1.282-112.109c-50.617 0-82.648-30.751-82.648-95.456V.011h-125.565v251.778c0 70.468 20.02 121.719 55.896 155.352 35.877 33.633 87.61 49.649 151.035 49.649m0 0c42.493 0 80.005-7.118 111.135-21.948 31.13-14.83 55.878-37.371 72.844-68.216 16.966-30.846 26.149-69.997 26.149-118.045V.011h-125.562v252.417c0 31.712-8.01 54.775-22.426 69.911-14.416 15.135-35.237 22.342-60.858 22.342l-.32 28.027-.321 28.028-.32 28.027-.321 28.027m-60.525-345.994M13903.864 456.79l1.282-112.109c-50.617 0-82.648-30.751-82.648-95.456V.011h-125.565v251.778c0 70.468 20.02 121.719 55.896 155.352 35.877 33.633 87.61 49.649 151.035 49.649m0 0c42.493 0 80.005-7.118 111.135-21.948 31.13-14.83 55.878-37.371 72.844-68.216 16.966-30.846 26.149-69.997 26.149-118.045V.011h-125.562v252.417c0 31.712-8.01 54.775-22.426 69.911-14.416 15.135-35.237 22.342-60.858 22.342l-.32 28.027-.321 28.028-.32 28.027-.321 28.027m-60.525-345.994M14375.864 456.79l1.282-112.109c-50.617 0-82.648-30.751-82.648-95.456V.011h-125.565v251.778c0 70.468 20.02 121.719 55.896 155.352 35.877 33.633 87.61 49.649 151.035 49.649m0 0c42.493 0 80.005-7.118 111.135-21.948 31.13-14.83 55.878-37.371 72.844-68.216 16.966-30.846 26.149-69.997 26.149-118.045V.011h-125.562v252.417c0 31.712-8.01 54.775-22.426 69.911-14.416 15.135-35.237 22.342-60.858 22.342l-.32 28.027-.321 28.028-.32 28.027-.321 28.027m-60.525-345.994M14847.864 456.79l1.282-112.109c-50.617 0-82.648-30.751-82.648-95.456V.011h-125.565v251.778c0 70.468 20.02 121.719 55.896 155.352 35.877 33.633 87.61 49.649 151.035 49.649m0 0c42.493 0 80.005-7.118 111.135-21.948 31.13-14.83 55.878-37.371 72.844-68.216 16.966-30.846 26.149-69.997 26.149-118.045V.011h-125.562v252.417c0 31.712-8.01 54.775-22.426 69.911-14.416 15.135-35.237 22.342-60.858 22.342l-.32 28.027-.321 28.028-.32 28.027-.321 28.027m-60.525-345.994M15319.864 456.79l1.282-112.109c-50.617 0-82.648-30.751-82.648-95.456V.011h-125.565v251.778c0 70.468 20.02 121.719 55.896 155.352 35.877 33.633 87.61 49.649 151.035 49.649m0 0c42.493 0 80.005-7.118 111.135-21.948 31.13-14.83 55.878-37.371 72.844-68.216 16.966-30.846 26.149-69.997 26.149-118.045V.011h-125.562v252.417c0 31.712-8.01 54.775-22.426 69.911-14.416 15.135-35.237 22.342-60.858 22.342l-.32 28.027-.321 28.028-.32 28.027-.321 28.027m-60.525-345.994M15791.864 456.79l1.282-112.109c-50.617 0-82.648-30.751-82.648-95.456V.011h-125.565v251.778c0 70.468 20.02 121.719 55.896 155.352 35.877 33.633 87.61 49.649 151.035 49.649m0 0c42.493 0 80.005-7.118 111.135-21.948 31.13-14.83 55.878-37.371 72.844-68.216 16.966-30.846 26.149-69.997 26.149-118.045V.011h-125.562v252.417c0 31.712-8.01 54.775-22.426 69.911-14.416 15.135-35.237 22.342-60.858 22.342l-.32 28.027-.321 28.028-.32 28.027-.321 28.027m-60.525-345.994M16263.864 456.79l1.282-112.109c-50.617 0-82.648-30.751-82.648-95.456V.011h-125.565v251.778c0 70.468 20.02 121.719 55.896 155.352 35.877 33.633 87.61 49.649 151.035 49.649m0 0c42.493 0 80.005-7.118 111.135-21.948 31.13-14.83 55.878-37.371 72.844-68.216 16.966-30.846 26.149-69.997 26.149-118.045V.011h-125.562v252.417c0 31.712-8.01 54.775-22.426 69.911-14.416 15.135-35.237 22.342-60.858 22.342l-.32 28.027-.321 28.028-.32 28.027-.321 28.027m-60.525-345.994M16735.864 456.79l1.282-112.109c-50.617 0-82.648-30.751-82.648-95.456V.011h-125.565v251.778c0 70.468 20.02 121.719 55.896 155.352 35.877 33.633 87.61 49.649 151.035 49.649m0 0c42.493 0 80.005-7.118 111.135-21.948 31.13-14.83 55.878-37.371 72.844-68.216 16.966-30.846 26.149-69.997 26.149-118.045V.011h-125.562v252.417c0 31.712-8.01 54.775-22.426 69.911-14.416 15.135-35.237 22.342-60.858 22.342l-.32 28.027-.321 28.028-.32 28.027-.321 28.027m-60.525-345.994M17209.146 344.681c-25.308 0-45.971-7.688-60.305-23.464-14.335-15.775-22.343-39.64-22.343-71.992V.011h-125.565v251.778c0 140.937 80.08 205.001 206.931 205.001l1.282-112.109m-1.282 112.109l1.282-112.109c51.242 0 83.284-28.829 83.284-92.253V.011h125.562v248.57c0 144.145-82.649 208.209-210.128 208.209m-89.42-345.343M17679.732 348.34c-19.113 0-35.954-10.621-49.819-30.219-13.864-15.273-21.61-38.368-21.61-69.674 0-84.686-3.1-168.09-8.423-248.437H17472.64v258.485c0 136.315 77.453 198.277 200.143 198.277h5.709l1.24-108.432m-1.24 108.432l1.24-108.432c49.561 0 80.552-27.883 80.552-89.227V14.976h121.443v240.417c0 139.417-79.938 201.379-203.235 201.379M17638.971-.011h-.056.056m23.752 223.73c2.501 0 4.148 1.39 4.148 3.805v.043c0 2.416-1.647 3.784-4.148 3.784h-1.689l.002-.091.125-7.541h1.562m-72.279 120.42l.002-.091-.002.091m1.871-223.188v-7.633h.127l-.127 7.633m-1.871-9.504h.127-.127m0 0h.127-.127M18145.593 364.224c7.781 0 7.523-23.353-4.301-59.543-11.824-13.088-18.429-32.848-18.429-59.61 0-91.697-16.556-176.544-44.986-245.064H17943.366v287.597c0 116.249 66.053 169.091 170.684 169.091h30.486l1.057-92.471m-1.057 92.471l1.057-92.471c42.266 0 68.696-23.779 68.696-76.093V79.929h103.567v205.029c0 118.895-68.171 171.737-173.32 171.737M18111.215-.011h-.3.3m20.447 207.204c13.359 0 22.151 7.421 22.151 20.323v.228c0 12.902-8.792 20.209-22.151 20.209h-9.018l.008-.487.669-40.273h8.341m-69.218 136.946l.008-.488-.008.488m1.596-190.336v-40.76h.678l-.678 40.76m-1.596-42.356h.678-.678m0 0h.678-.678M18605.431 395.695c61.066 0 93.664-48.579 85.884-117.643-7.78-8.761-12.126-21.912-12.126-39.67 0-105.588-43.216-193.294-117.428-238.381h-148.918V345.278c0 76.494 43.464 111.264 112.312 111.264h79.58l.696-60.847m-.696 60.847l.696-60.847c27.811 0 45.202-15.647 45.202-50.07V208.626h68.148v134.911c0 78.235-44.857 113.005-114.046 113.005M18583.697-.011h-.782.782m13.901 174.46c34.871 0 57.822 19.372 57.822 53.05v.596c0 33.678-22.951 52.753-57.822 52.753h-23.542l.021-1.273 1.748-105.126h21.773m-63.154 169.69l.021-1.273-.021 1.273m1.05-125.243V112.497h1.769l-1.769 106.399m-1.05-107.449h1.769-1.769m0 0h1.769-1.769M19067.17 422.246c106.021 0 166.34-69.862 161.971-166.66-4.369-5.11-6.809-12.685-6.809-22.848 0-117.307-65.709-207.425-178.545-232.742h-161.072v393.94c0 42.953 24.405 62.477 63.065 62.477h120.999l.391-34.167m-.391 34.167l.391-34.167c15.616 0 25.382-8.786 25.382-28.115v-76.928h38.267v75.755c0 43.931-25.189 63.455-64.04 63.455M19056.104-.011h-1.189 1.189m8.379 146.835c53.019 0 87.915 29.455 87.915 80.661v.906c0 51.207-34.896 80.209-87.915 80.209h-35.796l.032-1.936 2.658-159.84h33.106m-58.039 197.315l.032-1.936-.032 1.936m.59-70.327V112.037h2.69l-2.69 161.775m-.59-162.365h2.69-2.69m0 0h2.69-2.69M19533.051 438.077c132.826 0 209.673-82.552 207.338-195.886-2.335-2.934-3.639-7.184-3.639-12.818 0-124.295-79.119-215.851-214.985-229.38h-168.319v422.955c0 22.954 13.042 33.388 33.702 33.388h145.695l.208-18.259m-.208 18.259l.208-18.259c8.346 0 13.565-4.695 13.565-15.025v-41.111h20.45v40.485c0 23.476-13.461 33.91-34.223 33.91M19528.347-.011h-1.432 1.432m5.085 130.364c63.841 0 105.86 35.466 105.86 97.124v1.09c0 61.659-42.019 96.579-105.86 96.579h-43.101l.039-2.33 3.2-192.463h39.862m-54.988 213.786l.039-2.331-.039 2.331m.315-37.583V111.762h3.239l-3.239 194.794m-.315-195.109h3.239-3.239m0 0h3.239-3.239M20001.445 447.409c148.626 0 235.215-90.032 234.08-213.114-1.136-1.65-1.77-3.942-1.77-6.905 0-128.414-87.025-220.818-236.467-227.399h-172.59V440.05c0 11.166 6.344 16.241 16.394 16.241h160.251l.102-8.882m-.102 8.882l.102-8.882c4.06 0 6.598-2.284 6.598-7.308v-19.998h9.948v19.693c0 11.42-6.548 16.495-16.648 16.495M20000.49-.011h-1.575 1.575m3.144 120.654c70.219 0 116.437 39.011 116.437 106.829v1.199c0 67.819-46.218 106.229-116.437 106.229h-47.408l.043-2.563 3.52-211.694h43.845m-53.19 223.496l.043-2.564-.043 2.564m.153-18.282V111.6h3.563l-3.563 214.257m-.153-214.41h3.563-3.563m0 0h3.563-3.563M20471.375 452.766c157.696 0 249.878-94.326 249.431-223.004-.448-.914-.698-2.08-.698-3.511 0-130.778-91.562-223.669-248.797-226.261H20296.268V449.867c0 4.399 2.499 6.398 6.458 6.398h168.609l.04-3.499m-.04 3.499l.04-3.499c1.599 0 2.599-.9 2.599-2.879v-7.878h3.918v7.758c0 4.499-2.579 6.498-6.557 6.498M20472.573-.011h-1.658 1.658m2.029 115.081c73.881 0 122.508 41.044 122.508 112.399v1.262c0 71.356-48.627 111.769-122.508 111.769h-49.88l.045-2.698 3.703-222.732h46.132m-52.158 229.069l.045-2.697-.045 2.697m.06-7.202v-225.43h3.749l-3.749 225.43m-.06-225.49h3.749-3.749m0 0h3.749-3.749M20942.332 455.463c162.263 0 257.26-96.488 257.159-227.983-.1-.543-.157-1.143-.157-1.802 0-131.969-93.847-225.104-255.004-225.689h-176.278V454.809c0 .992.563 1.443 1.456 1.443h172.815l.009-.789m-.009.789l.009-.789c.361 0 .587-.203.587-.649v-1.777h.883v1.75c0 1.014-.581 1.465-1.479 1.465M20944.614-.011h-1.699 1.699m1.468 112.275c75.725 0 125.565 42.069 125.565 115.203v1.294c0 73.136-49.84 114.557-125.565 114.557h-51.124l.046-2.764 3.796-228.29h47.282m-51.638 231.875l.046-2.764-.046 2.764m.014-1.624V111.461h3.842l-3.842 231.054m-.014-231.068h3.842-3.842m0 0h3.842-3.842M21414.029 456.248c163.592 0 259.409-97.117 259.409-229.432v-1.305c0-132.315-94.512-225.522-256.812-225.522h-176.637v456.259h174.04M21416.626-.011h-1.711 1.711m1.305 111.458c76.261 0 126.455 42.367 126.455 116.02v1.303c0 73.654-50.194 115.369-126.455 115.369h-51.487l.046-2.784 3.824-229.908h47.617m-51.487 232.692l.046-2.784-.046 2.784m0 0V111.447h3.87l-3.87 232.692m0-232.692h3.87-3.87m0 0h3.87-3.87M21886.029 456.248c163.592 0 259.409-97.117 259.409-229.432v-1.305c0-132.315-94.512-225.522-256.812-225.522h-176.637v456.259h174.04M21888.626-.011h-1.711 1.711m1.305 111.458c76.261 0 126.455 42.367 126.455 116.02v1.303c0 73.654-50.194 115.369-126.455 115.369h-51.487l.046-2.784 3.824-229.908h47.617m-51.487 232.692l.046-2.784-.046 2.784m0 0V111.447h3.87l-3.87 232.692m0-232.692h3.87-3.87m0 0h3.87-3.87M22358.029 456.248c163.592 0 259.409-97.117 259.409-229.432v-1.305c0-132.315-94.512-225.522-256.812-225.522h-176.637v456.259h174.04M22360.626-.011h-1.711 1.711m1.305 111.458c76.261 0 126.455 42.367 126.455 116.02v1.303c0 73.654-50.194 115.369-126.455 115.369h-51.487l.046-2.784 3.824-229.908h47.617m-51.487 232.692l.046-2.784-.046 2.784m0 0V111.447h3.87l-3.87 232.692m0-232.692h3.87-3.87m0 0h3.87-3.87M22830.029 456.248c163.592 0 259.409-97.117 259.409-229.432v-1.305c0-132.315-94.512-225.522-256.812-225.522h-176.637v456.259h174.04M22832.626-.011h-1.711 1.711m1.305 111.458c76.261 0 126.455 42.367 126.455 116.02v1.303c0 73.654-50.194 115.369-126.455 115.369h-51.487l.046-2.784 3.824-229.908h47.617m-51.487 232.692l.046-2.784-.046 2.784m0 0V111.447h3.87l-3.87 232.692m0-232.692h3.87-3.87m0 0h3.87-3.87M23302.029 456.248c163.592 0 259.409-97.117 259.409-229.432v-1.305c0-132.315-94.512-225.522-256.812-225.522h-176.637v456.259h174.04M23304.626-.011h-1.711 1.711m1.305 111.458c76.261 0 126.455 42.367 126.455 116.02v1.303c0 73.654-50.194 115.369-126.455 115.369h-51.487l.046-2.784 3.824-229.908h47.617m-51.487 232.692l.046-2.784-.046 2.784m0 0V111.447h3.87l-3.87 232.692m0-232.692h3.87-3.87m0 0h3.87-3.87M23774.029 456.248c163.592 0 259.409-97.117 259.409-229.432v-1.305c0-132.315-94.512-225.522-256.812-225.522h-176.637v456.259h174.04M23776.626-.011h-1.711 1.711m1.305 111.458c76.261 0 126.455 42.367 126.455 116.02v1.303c0 73.654-50.194 115.369-126.455 115.369h-51.487l.046-2.784 3.824-229.908h47.617m-51.487 232.692l.046-2.784-.046 2.784m0 0V111.447h3.87l-3.87 232.692m0-232.692h3.87-3.87m0 0h3.87-3.87M24246.029 456.248c163.592 0 259.409-97.117 259.409-229.432v-1.305c0-132.315-94.512-225.522-256.812-225.522h-176.637v456.259h174.04M24248.626-.011h-1.711 1.711m1.305 111.458c76.261 0 126.455 42.367 126.455 116.02v1.303c0 73.654-50.194 115.369-126.455 115.369h-51.487l.046-2.784 3.824-229.908h47.617m-51.487 232.692l.046-2.784-.046 2.784m0 0V111.447h3.87l-3.87 232.692m0-232.692h3.87-3.87m0 0h3.87-3.87M24718.029 456.248c163.592 0 259.409-97.117 259.409-229.432v-1.305c0-132.315-94.512-225.522-256.812-225.522h-176.637v456.259h174.04M24720.626-.011h-1.711 1.711m1.305 111.458c76.261 0 126.455 42.367 126.455 116.02v1.303c0 73.654-50.194 115.369-126.455 115.369h-51.487l.046-2.784 3.824-229.908h47.617m-51.487 232.692l.046-2.784-.046 2.784m0 0V111.447h3.87l-3.87 232.692m0-232.692h3.87-3.87m0 0h3.87-3.87M25190.029 456.248c163.592 0 259.409-97.117 259.409-229.432v-1.305c0-132.315-94.512-225.522-256.812-225.522h-176.637v456.259h174.04M25192.626-.011h-1.711 1.711m1.305 111.458c76.261 0 126.455 42.367 126.455 116.02v1.303c0 73.654-50.194 115.369-126.455 115.369h-51.487l.046-2.784 3.824-229.908h47.617m-51.487 232.692l.046-2.784-.046 2.784m0 0V111.447h3.87l-3.87 232.692m0-232.692h3.87-3.87m0 0h3.87-3.87M25662.029 456.248c163.592 0 259.409-97.117 259.409-229.432v-1.305c0-132.315-94.512-225.522-256.812-225.522h-176.637v456.259h174.04M25664.626-.011h-1.711 1.711m1.305 111.458c76.261 0 126.455 42.367 126.455 116.02v1.303c0 73.654-50.194 115.369-126.455 115.369h-51.487l.046-2.784 3.824-229.908h47.617m-51.487 232.692l.046-2.784-.046 2.784m0 0V111.447h3.87l-3.87 232.692m0-232.692h3.87-3.87m0 0h3.87-3.87M26134.033 456.248c159.609 0 253.666-93.931 255.048-221.906v-16.228c-1.382-127.975-94.177-218.125-252.536-218.125l-170.843 4.989v451.27h168.331m126.888-227.496v-1.26c0-71.237-48.548-112.215-122.308-112.215h-49.798v225.06h49.798c73.76 0 122.308-40.347 122.308-111.585M26606.052 456.248c142.319 0 228.736-80.105 236.119-189.243v-80.998c-7.383-109.138-92.723-186.018-233.977-186.018l-145.696 26.641v429.618h143.554m111.827-227.574v-1.075c0-60.751-41.402-95.697-104.304-95.697h-42.468v191.932h42.468c62.902 0 104.304-34.408 104.304-95.16M27078.088 456.248c108.064 0 179.342-52.71 198.616-124.524V122.391C27257.43 50.577 27186.86-.011 27079.498-.011l-95.869 69.542v386.717h94.459m81.988-227.729v-.707c0-39.975-27.243-62.97-68.633-62.97h-27.945v126.293h27.945c41.39 0 68.633-22.64 68.633-62.616M27550.119 456.248c79.163 0 137.67-29.598 166.975-69.923V68.72c-29.305-40.325-87.414-68.731-166.183-68.731l-53.833 105.736v350.523h53.041m56.813-227.859v-.397c0-22.447-15.297-35.359-38.539-35.359h-15.691v70.916h15.691c23.242 0 38.539-12.713 38.539-35.16M28022.138 456.248c61.93 0 112.822-15.817 148.109-37.367V36.719c-35.287-21.55-85.966-36.73-147.686-36.73l-28.769 127.316v328.943h28.346m41.802-227.937v-.212c0-11.996-8.175-18.896-20.595-18.896h-8.386v37.898h8.386c12.42 0 20.595-6.794 20.595-18.79M28494.149 456.248c51.772 0 98.176-7.694 136.988-18.177V17.856c-38.812-10.483-85.112-17.867-136.783-17.867l-13.993 140.037v316.222h13.788m32.954-227.983v-.103c0-5.835-3.976-9.192-10.018-9.192h-4.079v18.435h4.079c6.042 0 10.018-3.305 10.018-9.14M28966.155 456.248c45.942 0 89.768-3.031 130.604-7.16V7.027c-40.836-4.129-84.622-7.038-130.523-7.038l-5.513 147.34v308.919h5.432m27.875-228.009v-.041c0-2.299-1.566-3.621-3.946-3.621h-1.607v7.262h1.607c2.38 0 3.946-1.302 3.946-3.6M29438.158 456.248c43.006 0 85.536-.683 127.391-1.615V1.576c-41.855-.931-84.375-1.587-127.373-1.587l-1.243 151.016v305.243h1.225m25.318-228.023v-.009c0-.518-.353-.816-.889-.816h-.363v1.637h.363c.536 0 .889-.293.889-.812M29910.159 456.248h126.455V-.011h-126.455v456.259m24.574-228.027M30382.159 456.248h126.455V-.011h-126.455v456.259m24.574-228.027M30854.159 456.248h126.455V-.011h-126.455v456.259m24.574-228.027M31326.159 456.248h126.455V-.011h-126.455v456.259m24.574-228.027M31798.159 456.248h126.455V-.011h-126.455v456.259m24.574-228.027M32270.159 456.248h126.455V-.011h-126.455v456.259m24.574-228.027M32742.159 456.248h126.455V-.011h-126.455v456.259m24.574-228.027M33214.159 456.248h126.455V-.011h-126.455v456.259m24.574-228.027M33686.159 456.248h126.455V-.011h-126.455v456.259m24.574-228.027M34158.159 456.248h126.455V-.011h-126.455v456.259zm61.959-228.066M34632.178 456.252c45.21 0 89.31-3.352 130.079-7.485V7.433c-40.769-4.112-84.828-7.443-130.038-7.443-4.441 49.032-7.773 101.416-7.773 154.582v147.139c0 53.144 3.29 105.508 7.732 154.541zm59.967-224.184c-2.2 0-3.701-1.83-3.701-3.886v-.041c0-2.077 1.46-3.845 3.66-3.845s3.68 1.789 3.68 3.886v.041c0 2.077-1.46 3.845-3.639 3.845M35112.939 456.267c58.485 0 111.042-17.898 145.81-39.969V39.742c-34.768-21.962-87.105-39.75-145.59-39.75-23.716 41.816-41.507 101.529-41.507 165.415v125.665c0 63.776 17.569 123.38 41.287 165.195zm51.325-207.332c-11.75 0-19.764-9.773-19.764-20.753v-.219c0-11.091 7.794-20.534 19.545-20.534 11.75 0 19.654 9.553 19.654 20.753v.219c0 11.091-7.797 20.534-19.435 20.534M35602.3 456.297c84.786 0 154.099-46.721 176.976-104.333V103.757c-22.877-57.326-91.617-103.759-176.403-103.759-61.908 27.515-108.349 101.75-108.349 186.877v83.118c0 84.841 45.862 158.789 107.776 186.304zm34.201-173.943c-30.673 0-51.593-25.51-51.593-54.172v-.573c0-28.949 20.347-53.6 51.02-53.6 30.672 0 51.303 24.937 51.303 54.172v.574c0 28.95-20.352 53.6-50.73 53.6v-.001M36088.946 456.322c106.976 0 190.425-71.037 203.271-158.634V157.765C36279.371 70.603 36196.794.002 36089.818.002c-94.13 15.45-164.74 101.937-164.74 204.985v47.222c0 102.613 69.73 188.663 163.868 204.113zm19.754-145.773c-46.636 0-78.444-38.787-78.444-82.366v-.871c0-44.017 30.936-81.497 77.573-81.497 46.636 0 78.005 37.915 78.005 82.366v.872c0 44.018-30.944 81.498-77.134 81.498v-.002M36569.679 456.338c120.207 0 212.084-85.536 218.949-191.012v-75.359c-6.865-104.952-97.693-189.962-217.9-189.962-113.341 8.257-198.363 102.048-198.363 215.781v25.82c0 113.209 83.963 206.475 197.314 214.732zm11.14-128.978c-56.154 0-94.455-46.703-94.455-99.177v-1.049c0-53.001 37.251-98.13 93.406-98.13 56.154 0 93.926 45.653 93.926 99.177v1.05c0 53.002-37.26 98.131-92.877 98.131v-.002M37046.826 456.347c128.006 0 224.852-94.083 228.192-210.098v-37.3C37271.678 93.51 37175.987.006 37047.981.006c-124.666 4.017-218.183 102.114-218.183 222.146v13.203c0 119.456 92.352 216.975 217.028 220.992zm6.064-119.077c-61.766 0-103.893-51.37-103.893-109.087v-1.154c0-58.296 40.972-107.935 102.738-107.935s103.311 50.215 103.311 109.087v1.155c0 58.298-40.983 107.936-102.156 107.936v-.002M37521.781 456.352c132.483 0 232.182-98.989 233.497-221.053v-15.453C37753.963 98.387 37655.479.007 37522.996.007c-131.166 1.583-229.561 102.152-229.561 225.799v5.961c0 123.042 97.168 223.003 228.346 224.585zm3.149-113.393c-64.987 0-109.311-54.049-109.311-114.776v-1.214c0-61.336 43.109-113.564 108.096-113.564 64.986 0 108.698 52.834 108.698 114.776v1.215c0 61.338-43.12 113.565-107.483 113.565v-.002M37995.269 456.354c134.737 0 235.871-101.458 236.167-226.568v-4.455C38231.14 100.842 38131.251.008 37996.514.008c-134.439.357-235.288 102.17-235.288 227.637v2.316c0 124.846 99.592 226.036 234.043 226.393zm1.681-110.532c-66.608 0-112.038-55.397-112.038-117.639v-1.244c0-62.867 44.185-116.397 110.793-116.397s111.41 54.152 111.41 117.639v1.245c0 62.869-44.195 116.398-110.165 116.398v-.002M38467.702 456.355c135.393 0 236.945-102.177 236.945-228.174v-1.253c0-125.371-100.298-226.92-235.691-226.92-135.392 0-236.956 102.176-236.956 228.173v1.254c0 125.372 100.298 226.92 235.702 226.92zm1.254-109.699c-67.08 0-112.832-55.79-112.832-118.473v-1.253c0-63.312 44.498-117.222 111.578-117.222 67.08 0 112.2 54.536 112.2 118.473v1.254c0 63.314-44.509 117.223-110.946 117.223v-.002" fill="#000000" fill-rule="evenodd"/><path d="M38939.702 456.355c135.393 0 236.945-102.177 236.945-228.174v-1.253c0-125.371-100.298-226.92-235.691-226.92-135.392 0-236.956 102.176-236.956 228.173v1.254c0 125.372 100.298 226.92 235.702 226.92zm1.254-109.699c-67.08 0-112.832-55.79-112.832-118.473v-1.253c0-63.312 44.498-117.222 111.578-117.222 67.08 0 112.2 54.536 112.2 118.473v1.254c0 63.314-44.509 117.223-110.946 117.223v-.002" fill="#000000" fill-rule="evenodd"/><path d="M39411.702 456.355c135.393 0 236.945-102.177 236.945-228.174v-1.253c0-125.371-100.298-226.92-235.691-226.92-135.392 0-236.956 102.176-236.956 228.173v1.254c0 125.372 100.298 226.92 235.702 226.92zm1.254-109.699c-67.08 0-112.832-55.79-112.832-118.473v-1.253c0-63.312 44.498-117.222 111.578-117.222 67.08 0 112.2 54.536 112.2 118.473v1.254c0 63.314-44.509 117.223-110.946 117.223v-.002" fill="#000000" fill-rule="evenodd"/><path d="M39883.702 456.355c135.393 0 236.945-102.177 236.945-228.174v-1.253c0-125.371-100.298-226.92-235.691-226.92-135.392 0-236.956 102.176-236.956 228.173v1.254c0 125.372 100.298 226.92 235.702 226.92zm1.254-109.699c-67.08 0-112.832-55.79-112.832-118.473v-1.253c0-63.312 44.498-117.222 111.578-117.222 67.08 0 112.2 54.536 112.2 118.473v1.254c0 63.314-44.509 117.223-110.946 117.223v-.002" fill="#000000" fill-rule="evenodd"/><path d="M40355.702 456.355c135.393 0 236.945-102.177 236.945-228.174v-1.253c0-125.371-100.298-226.92-235.691-226.92-135.392 0-236.956 102.176-236.956 228.173v1.254c0 125.372 100.298 226.92 235.702 226.92zm1.254-109.699c-67.08 0-112.832-55.79-112.832-118.473v-1.253c0-63.312 44.498-117.222 111.578-117.222 67.08 0 112.2 54.536 112.2 118.473v1.254c0 63.314-44.509 117.223-110.946 117.223v-.002" fill="#000000" fill-rule="evenodd"/><path d="M40827.702 456.355c135.393 0 236.945-102.177 236.945-228.174v-1.253c0-125.371-100.298-226.92-235.691-226.92-135.392 0-236.956 102.176-236.956 228.173v1.254c0 125.372 100.298 226.92 235.702 226.92zm1.254-109.699c-67.08 0-112.832-55.79-112.832-118.473v-1.253c0-63.312 44.498-117.222 111.578-117.222 67.08 0 112.2 54.536 112.2 118.473v1.254c0 63.314-44.509 117.223-110.946 117.223v-.002" fill="#000000" fill-rule="evenodd"/><path d="M41299.702 456.355c135.393 0 236.945-102.177 236.945-228.174v-1.253c0-125.371-100.298-226.92-235.691-226.92-135.392 0-236.956 102.176-236.956 228.173v1.254c0 125.372 100.298 226.92 235.702 226.92zm1.254-109.699c-67.08 0-112.832-55.79-112.832-118.473v-1.253c0-63.312 44.498-117.222 111.578-117.222 67.08 0 112.2 54.536 112.2 118.473v1.254c0 63.314-44.509 117.223-110.946 117.223v-.002" fill="#000000" fill-rule="evenodd"/><path d="M41771.702 456.355c135.393 0 236.945-102.177 236.945-228.174v-1.253c0-125.371-100.298-226.92-235.691-226.92-135.392 0-236.956 102.176-236.956 228.173v1.254c0 125.372 100.298 226.92 235.702 226.92zm1.254-109.699c-67.08 0-112.832-55.79-112.832-118.473v-1.253c0-63.312 44.498-117.222 111.578-117.222 67.08 0 112.2 54.536 112.2 118.473v1.254c0 63.314-44.509 117.223-110.946 117.223v-.002" fill="#000000" fill-rule="evenodd"/><path d="M42243.702 456.355c135.393 0 236.945-102.177 236.945-228.174v-1.253c0-125.371-100.298-226.92-235.691-226.92-135.392 0-236.956 102.176-236.956 228.173v1.254c0 125.372 100.298 226.92 235.702 226.92zm1.254-109.699c-67.08 0-112.832-55.79-112.832-118.473v-1.253c0-63.312 44.498-117.222 111.578-117.222 67.08 0 112.2 54.536 112.2 118.473v1.254c0 63.314-44.509 117.223-110.946 117.223v-.002" fill="#000000" fill-rule="evenodd"/><path d="M42715.702 456.355c135.393 0 236.945-102.177 236.945-228.174v-1.253c0-17.91-2.047-35.334-5.951-52.045-3.903-16.712-9.664-32.71-17.091-47.769-7.427-15.059-16.521-29.179-27.092-42.132-10.57-12.954-22.617-24.742-35.951-35.137s-27.954-19.397-43.67-26.781c-15.717-7.383-32.53-13.147-50.249-17.065-17.72-3.919-36.345-5.991-55.687-5.991-135.392 0-236.956 102.176-236.956 228.173v1.254c0 17.91 2.047 35.334 5.951 52.046 3.903 16.711 9.664 32.709 17.091 47.768 7.428 15.06 16.522 29.179 27.093 42.133 10.57 12.954 22.618 24.741 35.952 35.136 13.334 10.395 27.955 19.398 43.672 26.781 15.718 7.383 32.532 13.147 50.252 17.065 17.721 3.919 36.348 5.991 55.691 5.991m112.2-228.174c0-63.937-45.12-118.473-112.2-118.473-67.08 0-111.578 53.91-111.578 117.222v1.253c0 62.683 45.752 118.473 112.832 118.473v.002c66.437 0 110.946-53.909 110.946-117.223v-1.254M43187.615 456.344c134.464 0 235.02-100.581 235.02-225.4v-1.253c0-20.029-4.046-37.956-11.127-54.842-5.801-16.597-11.868-32.402-19.051-47.607-7.184-14.579-15.98-28.249-26.203-40.792-10.224-13.087-21.401-24.859-33.326-34.914-11.595-10.054-24.31-18.306-38.189-24.476-14.533-8.085-30.127-14.603-46.597-19.337-18.708-5.05-38.623-7.715-59.81-7.715-134.422 0-234.782 100.746-234.782 225.316v1.255c0 20.297 4.376 37.997 11.209 54.863 5.759 16.659 11.806 32.422 18.99 47.606 7.184 14.579 15.979 28.25 26.203 40.792 10.225 13.169 21.298 24.922 33.1 34.976 11.244 10.054 23.815 18.183 37.55 24.167 14.458 8.029 29.977 14.492 46.372 19.171 18.958 5.38 39.349 8.19 60.641 8.19m108.62-228.163c0-61.84-43.64-114.587-108.519-114.587-64.88 0-107.919 52.142-107.919 113.377v1.212c0 60.627 44.252 114.587 109.131 114.587v.002c64.258 0 107.307-52.141 107.307-113.378v-1.213M43659.237 456.297c130.433 0 226.664-93.657 226.664-213.361v-1.254c0-29.227-12.722-49.336-33.595-66.981-14.032-16.101-21.431-31.063-27.557-46.904-6.126-12.495-13.627-24.215-22.346-34.973-8.719-13.664-16.118-25.373-21.931-33.947-4.047-8.574-8.493-13.572-14.395-14.477-9.396-11.128-19.697-20.921-30.745-29.191-23.001-9.962-48.514-15.202-77.708-15.202-130.211 0-225.349 94.539-225.349 212.919v1.255c0 30.661 14.487 49.556 34.036 67.091 13.812 16.432 21.101 31.173 27.228 46.904 6.126 12.495 13.627 24.215 22.346 34.973 8.719 14.105 15.567 25.703 20.718 34.278 2.172 8.574 5.847 12.91 10.977 12.821 8.992 10.835 18.888 20.333 29.532 28.31 24.326 11.727 52.379 17.739 82.125 17.739m93.084-228.116c0-52.737-37.217-97.72-92.546-97.72-55.33 0-92.033 44.467-92.033 96.688v1.034c0 51.703 37.737 97.72 93.067 97.72v.002c54.799 0 91.512-44.466 91.512-96.69v-1.034M44130.489 456.204c122.445 0 210.107-79.937 210.107-189.507v-1.256c0-47.45-29.911-71.883-78.111-91.033-30.344-15.118-40.381-28.41-44.412-45.511-4.031-8.366-8.967-16.221-14.704-23.445-5.737-14.806-5.651-26.388.648-32.03 10.908-5.642 22.845-4.192 32.747 5.337.782-17.159.969-33.439.664-48.717-31.506-19.696-68.111-30.037-113.169-30.037-121.869 0-206.658 82.241-206.658 188.354v1.257c0 51.194 34.52 72.457 79.264 91.321 29.768 15.982 39.518 28.698 43.55 45.511 4.031 8.365 8.967 16.221 14.704 23.444 5.737 15.958 4.212 27.252-3.815 32.894-15.803 5.642-29.757 2.464-41.675-9.657-1.838 16.391-3.082 31.904-3.833 46.416 34.962 24.301 78.193 36.659 124.693 36.659m62.299-228.023c0-34.701-24.488-64.301-60.896-64.301s-60.559 29.26-60.559 63.622v.68c0 34.022 24.832 64.301 61.24 64.301v.002c36.058 0 60.215-29.259 60.215-63.623v-.681M44601.858 456.125c115.706 0 196.139-68.362 196.139-169.382v-1.257c0-62.825-44.414-90.905-115.669-111.325-44.104-14.289-56.367-26.172-58.631-44.336-2.264-4.882-5.035-9.478-8.257-13.718-3.221-15.771 3.18-27.246 19.697-30.414 23.524-3.168 49.284 3.722 72.52 22.053 9.369-22.247 18.403-44 27.162-65.191-38.681-27.906-84.644-42.551-143.087-42.551-114.83 0-190.888 71.865-190.888 167.629v1.259c0 68.516 51.42 91.778 117.421 111.762 43.229 15.602 55.056 26.609 57.32 44.335 2.263 4.882 5.035 9.478 8.256 13.718 3.222 17.522-5.368 28.559-24.512 31.727-30.969 3.168-59.794-6.35-86.095-28.622-10.976 21.081-21.617 41.668-31.983 61.692 43.937 34.911 99.973 52.621 160.607 52.621m36.328-227.943c0-19.486-13.751-36.107-34.195-36.107-20.444 0-34.005 16.43-34.005 35.725v.382c0 19.104 13.943 36.107 34.387 36.107 20.248 0 33.813-16.429 33.813-35.725v-.382M45073.481 456.078c111.689 0 187.811-61.46 187.811-157.382v-1.259c0-71.991-53.061-102.247-138.062-123.423-52.309-13.795-65.9-24.838-67.109-43.635-1.21-2.805-2.691-5.457-4.413-7.92-1.721-16.346 8.445-27.757 31.055-29.45 31.046-1.693 65.048 8.441 96.234 32.021 14.489-25.281 28.799-50.298 42.961-75.014-42.959-32.802-94.502-50.013-160.925-50.013-110.634 0-181.486 65.679-181.486 155.272v1.26c0 78.845 61.497 103.298 140.172 123.951 51.256 15.375 64.321 25.364 65.53 43.634 1.21 2.804 2.691 5.456 4.413 7.918 1.722 18.454-11.08 29.338-36.853 31.031-40.011 1.693-77.703-11.604-112.581-39.929-16.423 23.876-32.669 47.488-48.766 70.8 49.287 41.236 112.958 62.138 182.019 62.138m20.843-227.896c0-10.414-7.349-19.296-18.274-19.296s-18.173 8.78-18.173 19.092v.204c0 10.209 7.452 19.296 18.377 19.296 10.821 0 18.07-8.78 18.07-19.092v-.204M45545.259 456.05c109.32 0 182.902-57.391 182.902-150.308v-1.26c0-77.395-58.159-108.932-151.262-130.555-57.146-13.504-71.519-24.051-72.108-43.222-.588-1.581-1.308-3.087-2.146-4.501-.837-16.685 11.548-28.058 37.75-28.882 35.481-.823 74.34 11.222 110.213 37.896 17.506-27.069 34.926-54.009 52.274-80.804-45.481-35.688-100.313-54.412-171.44-54.412-108.16 0-175.944 62.032-175.944 147.989v1.26c0 84.933 67.438 110.089 153.584 131.135 55.987 15.243 69.781 24.63 70.37 43.221.588 1.581 1.309 3.086 2.146 4.499.838 19.005-14.447 29.798-44.128 30.622-45.34.823-88.259-14.702-128.192-46.595-19.635 25.524-39.184 50.92-58.66 76.169 52.44 44.965 120.612 67.748 194.641 67.748m11.715-227.868c0-5.066-3.575-9.386-8.889-9.386-5.315 0-8.84 4.271-8.84 9.287v.099c0 4.966 3.625 9.386 8.939 9.386 5.263 0 8.79-4.271 8.79-9.287v-.099M46017.132 456.034c107.961 0 180.084-55.056 180.084-146.248v-1.26c0-80.496-61.086-112.77-158.84-134.649-59.923-13.336-74.745-23.599-74.977-42.985-.231-.878-.515-1.726-.845-2.538-.33-16.88 13.33-28.232 41.593-28.556 38.026-.325 79.675 12.819 118.237 41.269 19.239-28.096 38.445-56.141 57.621-84.128-46.929-37.345-103.649-56.937-177.476-56.937-106.74 0-172.762 59.939-172.762 143.807v1.261c0 88.428 70.847 113.987 161.282 135.259 58.703 15.166 72.916 24.209 73.148 42.984.232.877.516 1.725.846 2.537.329 19.32-16.38 30.061-48.304 30.386-48.401.324-94.32-16.48-137.155-50.421-21.479 26.47-42.923 52.889-64.34 79.251 54.252 47.105 125.007 70.968 201.888 70.968m6.474-227.852c0-1.996-1.408-3.698-3.501-3.698-2.094 0-3.483 1.683-3.483 3.659v.039c0 1.956 1.428 3.697 3.522 3.697 2.073 0 3.462-1.682 3.462-3.658v-.039M46489.068 456.026c107.276 0 178.665-53.88 178.665-144.204v-1.26c0-82.058-62.558-114.702-162.655-136.71-61.32-13.252-76.368-23.372-76.42-42.865-.052-.524-.116-1.042-.191-1.551-.074-16.978 14.227-28.319 43.528-28.392 39.308-.073 82.36 13.623 122.277 42.967 20.111-28.612 40.215-57.213 60.312-85.801-47.658-38.179-105.328-58.208-180.515-58.208-106.025 0-171.16 58.885-171.16 141.702v1.261c0 90.188 72.564 115.949 165.157 137.335 60.07 15.128 74.495 23.997 74.547 42.865.052.523.116 1.04.191 1.549.074 19.479-17.353 30.194-50.406 30.267-49.941.073-97.371-17.375-141.667-52.347-22.407 26.946-44.806 53.881-67.198 80.802 55.162 48.184 127.219 72.59 205.535 72.59m3.836-227.844c0-.45-.317-.834-.789-.834-.472 0-.786.379-.786.825v.009c0 .441.322.834.794.834.468 0 .781-.38.781-.825v-.009M46961.049 456.024c107.077 0 178.252-53.538 178.252-143.609v-1.26c0-82.513-62.987-115.265-163.765-137.31-61.727-13.228-76.841-23.306-76.841-42.831v-1.263c0-17.006 14.488-28.344 44.091-28.344 39.681 0 83.142 13.857 123.453 43.461 20.365-28.763 40.731-57.525 61.096-86.288-47.87-38.422-105.817-58.578-181.4-58.578-105.817 0-170.694 58.578-170.694 141.089v1.261c0 90.7 73.064 116.521 166.286 137.94 60.468 15.116 74.954 23.935 74.954 42.83v1.261c0 19.525-17.636 30.233-51.018 30.233-50.389 0-98.259-17.636-142.98-52.908-22.677 27.085-45.354 54.169-68.031 81.254 55.428 48.497 127.863 73.062 206.597 73.062m3.069-227.842" fill="#000000" fill-rule="evenodd"/></svg>